<?xml version="1.0" encoding="utf-8"?>
<!-- Generator: Adobe Illustrator 23.1.0, SVG Export Plug-In . SVG Version: 6.00 Build 0)  -->
<svg version="1.1" id="Capa_1" xmlns="http://www.w3.org/2000/svg" xmlns:xlink="http://www.w3.org/1999/xlink" x="0px" y="0px"
	 viewBox="0 0 38 38" enable-background="new 0 0 38 38" xml:space="preserve">
<path id="shock_x5F_color_1_" fill="#85C3DE" d="M10,25H4V10h6V25z M22,30V20h3v-8h-5.5l-3.1,4.3c-0.3,0.4-0.4,1-0.4,1.5v15.4
	c0,1.5,1.3,2.8,2.8,2.8H25v-6H22z"/>
<path opacity="0.8" fill="#231F20" d="M8,31h2v5H8V31z M10,6h4v15h-2V8H6v3h4v2H6v2h4v2H6v2h4v2H6v2h8v2h-2v4H6v-4H4V6h4V4H5V2h8v2
	h-3V6z M10,25H8v2h2V25z M32,18v-0.2c0-0.1,0-0.3-0.1-0.4L29.5,14h-8.9l-2.4,3.4C18,17.5,18,17.7,18,17.8v15.4
	c0,0.4,0.4,0.8,0.8,0.8h15.1c-0.3,1.2-1.4,2-2.7,2H18.8c-1.5,0-2.8-1.3-2.8-2.8V17.8c0-0.5,0.1-1,0.4-1.5l1.7-2.3H17V8h16v6h-1.1
	l1.7,2.3c0.3,0.4,0.4,1,0.4,1.5V32H20V18H32z M30.5,12H31v-2H19v2h0.5H30.5z M32,30V20H22v10H32z"/>
</svg>
